<?xml version="1.0" encoding="UTF-8" standalone="no"?>
<svg
   height="16"
   viewBox="0 0 16 16"
   width="16"
   version="1.1"
   id="svg2"
   sodipodi:docname="gameover.svg"
   inkscape:version="1.3 (0e150ed6c4, 2023-07-21)"
   xmlns:inkscape="http://www.inkscape.org/namespaces/inkscape"
   xmlns:sodipodi="http://sodipodi.sourceforge.net/DTD/sodipodi-0.dtd"
   xmlns="http://www.w3.org/2000/svg"
   xmlns:svg="http://www.w3.org/2000/svg">
  <defs
     id="defs2" />
  <sodipodi:namedview
     id="namedview2"
     pagecolor="#505050"
     bordercolor="#eeeeee"
     borderopacity="1"
     inkscape:showpageshadow="0"
     inkscape:pageopacity="0"
     inkscape:pagecheckerboard="0"
     inkscape:deskcolor="#505050"
     inkscape:zoom="49.875"
     inkscape:cx="8"
     inkscape:cy="8"
     inkscape:window-width="1920"
     inkscape:window-height="1002"
     inkscape:window-x="0"
     inkscape:window-y="0"
     inkscape:window-maximized="1"
     inkscape:current-layer="svg2" />
  <path
     d="M 6,1.5 A 4,4 0 0 0 4,8.953 V 12.5 a 2,2 0 0 0 2,2 h 2 v -2 H 7 v -1 H 6 v 1 H 5 v -4 h 1 v 1 h 1 v -1 h 1 v -1 H 7 v -1 h 1 v -5 z m -1,3 a 1,1 0 0 1 0,2 1,1 0 0 1 0,-2 z"
     fill="#e0e0e0"
     id="path1"
     style="fill:#fc7f7f;fill-opacity:1" />
  <path
     d="m 8,1.5 v 5 h 1 v 1 H 8 v 1 h 1 v 1 h 1 v -1 h 1 v 4 h -1 v -1 H 9 v 1 H 8 v 2 h 2 a 2,2 0 0 0 2,-2 V 8.953 A 4,4 0 0 0 10,1.5 Z m 3,3 a 1,1 0 0 1 0,2 1,1 0 0 1 0,-2 z"
     fill="#fc7f7f"
     id="path2" />
</svg>
